<svg width="38" height="38" viewBox="0 0 38 38" fill="none" xmlns="http://www.w3.org/2000/svg">
<path d="M37.4275 23.5965C34.8898 33.7751 24.58 39.969 14.4002 37.4314C4.22515 34.8937 -1.96941 24.5839 0.568854 14.4058C3.10534 4.22605 13.4146 -1.96911 23.5914 0.56857C33.7706 3.10624 39.9646 13.4173 37.4269 23.5965H37.4275Z" fill="#F7931A"/>
<path d="M27.3753 16.2933C27.7529 13.7652 25.828 12.4061 23.1959 11.4994L24.0497 8.07469L21.9645 7.55516L21.1332 10.8896C20.5858 10.7531 20.0229 10.6242 19.4636 10.4966L20.3008 7.14013L18.2174 6.62061L17.3629 10.0442C16.9093 9.94084 16.464 9.83871 16.0318 9.73125L16.0341 9.72056L13.1592 9.00272L12.6047 11.2293C12.6047 11.2293 14.1514 11.5837 14.1187 11.6057C14.963 11.8165 15.1162 12.3752 15.0901 12.8181L14.1175 16.7196C14.1757 16.7345 14.2511 16.7559 14.3342 16.7891L14.1146 16.7345L12.7507 22.1999C12.6474 22.4564 12.3856 22.8412 11.7954 22.6951C11.8162 22.7254 10.2801 22.3169 10.2801 22.3169L9.24524 24.7038L11.9587 25.38C12.4633 25.5065 12.9579 25.6389 13.4442 25.7636L12.5815 29.2281L14.6638 29.7476L15.5188 26.3205C16.087 26.4749 16.6392 26.6174 17.1795 26.7516L16.328 30.1627L18.4127 30.6822L19.2754 27.2248C22.8302 27.8975 25.5038 27.6262 26.6278 24.4116C27.5344 21.8229 26.5832 20.3296 24.7129 19.3553C26.075 19.04 27.101 18.144 27.3747 16.2933H27.3753ZM22.6117 22.9724C21.9669 25.5611 17.6088 24.1623 16.195 23.8108L17.3398 19.2217C18.7529 19.5744 23.2838 20.2726 22.6123 22.9724H22.6117ZM23.2559 16.2559C22.6681 18.6107 19.0403 17.4143 17.8629 17.121L18.9008 12.9589C20.0782 13.2522 23.8686 13.7996 23.2559 16.2559Z" fill="white"/>
</svg>
