<svg width="49" height="38" viewBox="0 0 49 38" fill="none" xmlns="http://www.w3.org/2000/svg">
<path d="M47.876 37.4806V37.5783H47.9671C47.9842 37.5786 48.0011 37.5743 48.0159 37.5658C48.0219 37.5616 48.0267 37.556 48.0299 37.5495C48.0331 37.543 48.0346 37.5357 48.0343 37.5285C48.0346 37.5213 48.0331 37.5143 48.0298 37.5079C48.0266 37.5015 48.0219 37.4961 48.0159 37.4921C48.0012 37.4832 47.9843 37.4789 47.9671 37.4796H47.876V37.4806ZM47.9681 37.4115C48.0071 37.4091 48.0458 37.4203 48.0775 37.4432C48.0902 37.4536 48.1003 37.4669 48.1069 37.4819C48.1136 37.4969 48.1166 37.5133 48.1158 37.5297C48.1164 37.5438 48.114 37.5579 48.1087 37.571C48.1033 37.5841 48.0953 37.5959 48.0851 37.6056C48.0606 37.6269 48.0299 37.6396 47.9976 37.642L48.1197 37.7812H48.0257L47.9134 37.643H47.877V37.7812H47.7984V37.4117H47.9693L47.9681 37.4115ZM47.9437 37.9087C47.9849 37.9091 48.0258 37.9007 48.0636 37.8843C48.1 37.8686 48.1332 37.8461 48.1612 37.8181C48.1894 37.7901 48.2118 37.7569 48.2274 37.7204C48.2595 37.643 48.2595 37.556 48.2274 37.4786C48.2116 37.4423 48.1892 37.4091 48.1612 37.381C48.1331 37.353 48.1 37.3305 48.0636 37.3148C48.0255 37.2992 47.9848 37.2914 47.9437 37.2918C47.9019 37.2915 47.8604 37.2993 47.8216 37.3148C47.7843 37.3302 47.7504 37.3527 47.7217 37.381C47.6785 37.4253 47.6493 37.4813 47.6377 37.5421C47.6261 37.6029 47.6326 37.6657 47.6565 37.7228C47.6714 37.7595 47.6936 37.7927 47.7217 37.8205C47.7504 37.8488 47.7843 37.8713 47.8216 37.8867C47.8602 37.9032 47.9017 37.9115 47.9437 37.9111V37.9087ZM47.9437 37.203C48.051 37.2028 48.154 37.2449 48.2306 37.3202C48.2675 37.3563 48.2969 37.3994 48.317 37.4469C48.3379 37.4957 48.3487 37.5483 48.3487 37.6014C48.3487 37.6544 48.3379 37.707 48.317 37.7558C48.2964 37.8031 48.2671 37.8461 48.2306 37.8825C48.1931 37.9185 48.1495 37.9474 48.1019 37.968C48.0519 37.9893 47.998 38.0001 47.9437 37.9998C47.8887 38.0001 47.8342 37.9893 47.7835 37.968C47.7353 37.9479 47.6913 37.9189 47.6538 37.8825C47.6173 37.8447 47.5884 37.8003 47.5686 37.7517C47.5477 37.7028 47.537 37.6503 47.537 37.5972C47.537 37.5441 47.5477 37.4916 47.5686 37.4428C47.5887 37.3952 47.6181 37.3521 47.655 37.316C47.692 37.279 47.7361 37.25 47.7847 37.2305C47.8354 37.2092 47.8899 37.1984 47.9449 37.1988L47.9437 37.203ZM10.5531 35.7761C10.5531 35.0717 11.0146 34.4929 11.7689 34.4929C12.4897 34.4929 12.9762 35.0467 12.9762 35.7761C12.9762 36.5055 12.4897 37.0594 11.7689 37.0594C11.0146 37.0594 10.5531 36.4806 10.5531 35.7761ZM13.7979 35.7761V33.7713H12.9264V34.2597C12.6499 33.8988 12.2307 33.6724 11.6605 33.6724C10.5372 33.6724 9.65566 34.5535 9.65566 35.7771C9.65566 37.0008 10.5367 37.8818 11.6605 37.8818C12.2304 37.8818 12.6499 37.6552 12.9264 37.2945V37.7812H13.7969V35.7761H13.7979ZM43.2454 35.7761C43.2454 35.0717 43.7069 34.4929 44.4615 34.4929C45.1831 34.4929 45.6688 35.0467 45.6688 35.7761C45.6688 36.5055 45.1831 37.0594 44.4615 37.0594C43.7072 37.0594 43.2454 36.4806 43.2454 35.7761ZM46.4912 35.7761V32.1621H45.619V34.2597C45.3425 33.8988 44.9233 33.6724 44.3531 33.6724C43.2298 33.6724 42.3483 34.5535 42.3483 35.7771C42.3483 37.0008 43.2293 37.8818 44.3531 37.8818C44.9233 37.8818 45.3425 37.6552 45.619 37.2945V37.7812H46.4912V35.7761ZM24.6146 34.4516C25.1762 34.4516 25.5369 34.8038 25.629 35.4238H23.5494C23.6425 34.845 23.9939 34.4516 24.6148 34.4516H24.6146ZM24.6322 33.6702C23.4576 33.6702 22.6359 34.5249 22.6359 35.7749C22.6359 37.0494 23.4906 37.8796 24.6905 37.8796C25.2942 37.8796 25.847 37.7289 26.3335 37.318L25.9064 36.6721C25.5704 36.9407 25.1425 37.0914 24.7403 37.0914C24.1787 37.0914 23.6674 36.8313 23.5416 36.1097H26.5176C26.5261 36.0013 26.5349 35.8919 26.5349 35.7747C26.5261 34.5252 25.7535 33.67 24.6317 33.67L24.6322 33.6702ZM35.1539 35.7747C35.1539 35.0702 35.6154 34.4915 36.3697 34.4915C37.0906 34.4915 37.577 35.0453 37.577 35.7747C37.577 36.5041 37.0906 37.0579 36.3697 37.0579C35.6154 37.0579 35.1536 36.4792 35.1536 35.7747H35.1539ZM38.3985 35.7747V33.7713H37.5274V34.2597C37.25 33.8988 36.8317 33.6724 36.2615 33.6724C35.1383 33.6724 34.2567 34.5535 34.2567 35.7771C34.2567 37.0008 35.1378 37.8818 36.2615 37.8818C36.8317 37.8818 37.25 37.6552 37.5274 37.2945V37.7812H38.3987V35.7761L38.3985 35.7747ZM30.2322 35.7747C30.2322 36.9905 31.0786 37.8794 32.3704 37.8794C32.974 37.8794 33.3762 37.7451 33.8111 37.4015L33.3925 36.697C33.0653 36.9321 32.7217 37.0579 32.3425 37.0579C31.6468 37.0494 31.1352 36.5463 31.1352 35.7747C31.1352 35.003 31.6468 34.5002 32.3425 34.4915C32.7208 34.4915 33.0643 34.6172 33.3925 34.8524L33.8111 34.1479C33.3754 33.8043 32.9733 33.67 32.3704 33.67C31.0786 33.67 30.2322 34.5586 30.2322 35.7747ZM41.4675 33.67C40.9647 33.67 40.6372 33.9051 40.4109 34.2573V33.7713H39.5471V37.779H40.4196V35.5324C40.4196 34.8692 40.7046 34.5007 41.2743 34.5007C41.4609 34.498 41.6461 34.5323 41.8193 34.6016L42.088 33.7801C41.895 33.7042 41.6435 33.6707 41.467 33.6707L41.4675 33.67ZM18.1066 34.09C17.6874 33.8136 17.1096 33.6707 16.4723 33.6707C15.4569 33.6707 14.8032 34.1574 14.8032 34.9537C14.8032 35.6072 15.2899 36.0103 16.1861 36.1361L16.5978 36.1947C17.0757 36.2618 17.3013 36.3876 17.3013 36.614C17.3013 36.9238 16.9838 37.1006 16.3878 37.1006C15.7841 37.1006 15.3485 36.9077 15.0547 36.6814L14.6452 37.3609C15.1231 37.7131 15.7267 37.8811 16.3805 37.8811C17.5379 37.8811 18.2087 37.336 18.2087 36.5729C18.2087 35.8684 17.6808 35.5 16.8085 35.3742L16.3978 35.3146C16.0205 35.2658 15.7182 35.1898 15.7182 34.9212C15.7182 34.6282 16.0032 34.4519 16.4813 34.4519C16.9929 34.4519 17.4881 34.6448 17.7308 34.7955L18.1081 34.091L18.1066 34.09ZM29.3519 33.6715C28.8491 33.6715 28.5217 33.9066 28.2963 34.2587V33.7713H27.4326V37.779H28.3041V35.5324C28.3041 34.8692 28.5891 34.5007 29.1587 34.5007C29.3453 34.498 29.5305 34.5323 29.7038 34.6016L29.9724 33.7801C29.7795 33.7042 29.528 33.6707 29.3514 33.6707L29.3519 33.6715ZM21.9148 33.7713H20.4897V32.5555H19.6087V33.7713H18.7957V34.5679H19.6087V36.3961C19.6087 37.326 19.9696 37.8799 21.0006 37.8799C21.3788 37.8799 21.8144 37.7626 22.0909 37.57L21.8391 36.8237C21.579 36.9744 21.2941 37.0503 21.0675 37.0503C20.6318 37.0503 20.4897 36.7817 20.4897 36.3795V34.5686H21.9148V33.7713ZM8.88499 37.78V35.2648C8.88499 34.3176 8.28135 33.6802 7.30825 33.6717C6.79667 33.6632 6.26897 33.8224 5.89951 34.3847C5.62308 33.9403 5.18744 33.6717 4.57501 33.6717C4.14694 33.6717 3.72864 33.7975 3.40118 34.2668V33.7713H2.52893V37.779H3.40802V35.5569C3.40802 34.8612 3.79384 34.4915 4.38967 34.4915C4.9684 34.4915 5.26119 34.8687 5.26119 35.5481V37.7785H6.14223V35.5564C6.14223 34.8607 6.54442 34.491 7.12291 34.491C7.718 34.491 8.002 34.8682 8.002 35.5476V37.778L8.88499 37.78Z" fill="#231F20"/>
<path d="M48.3728 24.4489V23.8628H48.2202L48.0437 24.265L47.8681 23.8628H47.715V24.4489H47.8234V24.0074L47.9885 24.3883H48.1008L48.2659 24.0064V24.4489H48.3733H48.3728ZM47.4046 24.4489V23.9632H47.6V23.8643H47.1008V23.9632H47.2962V24.4489H47.4036H47.4046Z" fill="#F79410"/>
<path d="M31.0263 26.9625H17.819V3.22705H31.0266L31.0263 26.9625Z" fill="#FF5F00"/>
<path d="M18.6562 15.0952C18.6562 10.2805 20.9106 5.9915 24.4211 3.2275C21.7638 1.1322 18.4772 -0.00498363 15.0932 1.64181e-05C6.75727 1.64181e-05 0 6.75826 0 15.0952C0 23.4321 6.75727 30.1904 15.0932 30.1904C18.4773 30.1954 21.764 29.0583 24.4213 26.9629C20.9111 24.1994 18.6562 19.9102 18.6562 15.0952Z" fill="#EB001B"/>
<path d="M48.8443 15.0952C48.8443 23.4321 42.0871 30.1904 33.7511 30.1904C30.3667 30.1954 27.0796 29.0582 24.4218 26.9629C27.9332 24.1989 30.1876 19.9102 30.1876 15.0952C30.1876 10.2802 27.9332 5.9915 24.4218 3.2275C27.0795 1.13227 30.3665 -0.00489599 33.7508 1.58455e-05C42.0868 1.58455e-05 48.8441 6.75826 48.8441 15.0952" fill="#F79E1B"/>
</svg>
